<?xml version="1.0" encoding="UTF-8"?><svg id="Layer_2" xmlns="http://www.w3.org/2000/svg" viewBox="0 0 595.28 92.37"><defs><style>.cls-1{fill:none;}.cls-2,.cls-3{fill:#354255;}.cls-3{opacity:.5;}</style></defs><g id="Layer_1-2"><rect class="cls-3" width="595.28" height="92.37"/><rect class="cls-1" x="181.86" y="24.92" width="231.56" height="42.54"/><path class="cls-2" d="M196.68,66.44l-12.84-40.86-.06-.24c0-.28.18-.42.54-.42h4.86c.36,0,.6.16.72.48l9.9,33.18c.04.08.1.12.18.12s.14-.04.18-.12l9.9-33.18c.12-.32.34-.48.66-.48h4.74c.44,0,.6.22.48.66l-12.96,40.86c-.12.32-.36.48-.72.48h-4.86c-.36,0-.6-.16-.72-.48Z"/><path class="cls-2" d="M243.84,53.36c0,.4-.2.6-.6.6h-19.14c-.16,0-.24.08-.24.24,0,1.36.12,2.4.36,3.12.44,1.6,1.33,2.85,2.67,3.75,1.34.9,3.03,1.35,5.07,1.35,2.96,0,5.24-1.22,6.84-3.66.2-.4.46-.46.78-.18l3.42,2.28c.28.24.34.5.18.78-1.12,1.8-2.71,3.22-4.77,4.26-2.06,1.04-4.39,1.56-6.99,1.56-2.92,0-5.38-.64-7.38-1.92-2-1.28-3.5-3.1-4.5-5.46-.96-2.36-1.44-5.22-1.44-8.58,0-2.92.22-5.14.66-6.66.72-2.76,2.16-4.94,4.32-6.54,2.16-1.6,4.78-2.4,7.86-2.4,4.04,0,7.06,1.01,9.06,3.03,2,2.02,3.22,4.99,3.66,8.91.16,1.64.22,3.48.18,5.52ZM226.68,42.17c-1.12.86-1.88,2.01-2.28,3.45-.28.88-.46,2-.54,3.36,0,.16.08.24.24.24h13.74c.16,0,.24-.08.24-.24-.08-1.32-.2-2.3-.36-2.94-.4-1.56-1.19-2.81-2.37-3.75-1.18-.94-2.65-1.41-4.41-1.41s-3.14.43-4.26,1.29Z"/><path class="cls-2" d="M267.96,36.86c.28.12.38.36.3.72l-.96,4.5c-.04.36-.28.48-.72.36-.68-.28-1.48-.42-2.4-.42l-.84.06c-1.88.08-3.43.73-4.65,1.95s-1.83,2.81-1.83,4.77v17.52c0,.4-.2.6-.6.6h-4.56c-.4,0-.6-.2-.6-.6v-29.34c0-.4.2-.6.6-.6h4.56c.4,0,.6.2.6.6v3.18c0,.12.03.19.09.21.06.02.11,0,.15-.09,1.8-2.8,4.26-4.2,7.38-4.2,1.28,0,2.44.26,3.48.78Z"/><path class="cls-2" d="M273.35,66.32V25.52c0-.4.2-.6.6-.6h4.56c.4,0,.6.2.6.6v23.1c0,.08.04.14.12.18.08.04.14.02.18-.06l11.1-12.06c.16-.2.4-.3.72-.3h5.34c.24,0,.39.07.45.21.06.14,0,.31-.15.51l-7.74,8.94c-.08.16-.1.28-.06.36l9.18,19.8.06.24c0,.32-.18.48-.54.48h-4.8c-.32,0-.54-.16-.66-.48l-7.14-16.32c-.08-.2-.18-.22-.3-.06l-5.64,6.24c-.08.16-.12.26-.12.3v9.72c0,.4-.2.6-.6.6h-4.56c-.4,0-.6-.2-.6-.6Z"/><path class="cls-2" d="M320.85,37.19c1.82.86,3.22,2.06,4.2,3.6.98,1.54,1.47,3.29,1.47,5.25v20.28c0,.4-.2.6-.6.6h-4.56c-.4,0-.6-.2-.6-.6v-2.16c0-.2-.1-.24-.3-.12-1.04,1.08-2.31,1.91-3.81,2.49-1.5.58-3.17.87-5.01.87-2.96,0-5.41-.75-7.35-2.25-1.94-1.5-2.91-3.77-2.91-6.81s1.09-5.57,3.27-7.35c2.18-1.78,5.23-2.67,9.15-2.67h6.72c.16,0,.24-.08.24-.24v-1.62c0-1.76-.51-3.13-1.53-4.11-1.02-.98-2.57-1.47-4.65-1.47-1.68,0-3.05.33-4.11.99-1.06.66-1.71,1.55-1.95,2.67-.12.4-.36.58-.72.54l-4.86-.66c-.4-.08-.58-.24-.54-.48.32-2.36,1.58-4.29,3.78-5.79,2.2-1.5,4.96-2.25,8.28-2.25,2.44,0,4.57.43,6.39,1.29ZM318.42,60.86c1.56-1.12,2.34-2.54,2.34-4.26v-3.54c0-.16-.08-.24-.24-.24h-5.64c-2.36,0-4.24.46-5.64,1.38-1.4.92-2.1,2.2-2.1,3.84,0,1.48.53,2.6,1.59,3.36,1.06.76,2.45,1.14,4.17,1.14,2.12,0,3.96-.56,5.52-1.68Z"/><path class="cls-2" d="M353.1,36.38h4.5c.4,0,.6.2.6.6v29.34c0,.4-.2.6-.6.6h-4.5c-.4,0-.6-.2-.6-.6v-2.22c0-.08-.03-.13-.09-.15-.06-.02-.13.01-.21.09-1.6,2.2-4.06,3.3-7.38,3.3-1.96,0-3.77-.38-5.43-1.14-1.66-.76-2.99-1.88-3.99-3.36-1-1.48-1.5-3.28-1.5-5.4v-20.46c0-.4.2-.6.6-.6h4.5c.4,0,.6.2.6.6v18.66c0,2.08.55,3.72,1.65,4.92,1.1,1.2,2.65,1.8,4.65,1.8s3.6-.61,4.8-1.83c1.2-1.22,1.8-2.85,1.8-4.89v-18.66c0-.4.2-.6.6-.6Z"/><path class="cls-2" d="M375.96,31.1c-.72.76-1.08,2.2-1.08,4.32v.72c0,.16.08.24.24.24h6.3c.4,0,.6.2.6.6v4.08c0,.4-.2.6-.6.6h-6.3c-.16,0-.24.08-.24.24v24.42c0,.4-.2.6-.6.6h-4.56c-.4,0-.6-.2-.6-.6v-24.42c0-.16-.08-.24-.24-.24h-4.02c-.4,0-.6-.2-.6-.6v-4.08c0-.4.2-.6.6-.6h4.02c.16,0,.24-.08.24-.24v-1.08c0-2.64.31-4.68.93-6.12.62-1.44,1.67-2.47,3.15-3.09,1.48-.62,3.56-.93,6.24-.93h2.04c.4,0,.6.2.6.6v3.84c0,.4-.2.6-.6.6h-1.44c-2,0-3.36.38-4.08,1.14Z"/><path class="cls-2" d="M403.08,41.12h-6.48c-.16,0-.24.08-.24.24v15.9c0,1.68.38,2.89,1.14,3.63.76.74,1.94,1.11,3.54,1.11h1.74c.4,0,.6.2.6.6v3.72c0,.4-.2.6-.6.6-1.28.08-2.2.12-2.76.12-3.04,0-5.33-.55-6.87-1.65-1.54-1.1-2.31-3.13-2.31-6.09v-17.94c0-.16-.08-.24-.24-.24h-3.66c-.4,0-.6-.2-.6-.6v-3.54c0-.4.2-.6.6-.6h3.66c.16,0,.24-.08.24-.24v-7.08c0-.4.2-.6.6-.6h4.32c.4,0,.6.2.6.6v7.08c0,.16.08.24.24.24h6.48c.4,0,.6.2.6.6v3.54c0,.4-.2.6-.6.6Z"/></g></svg>