<?xml version="1.0" encoding="utf-8"?>
<!-- Generator: Adobe Illustrator 28.3.0, SVG Export Plug-In . SVG Version: 6.00 Build 0)  -->
<svg version="1.1" id="Layer_2_00000056417184847099401930000011478885958886450336_"
	 xmlns="http://www.w3.org/2000/svg" xmlns:xlink="http://www.w3.org/1999/xlink" x="0px" y="0px" viewBox="0 0 372 76.6"
	 style="enable-background:new 0 0 372 76.6;" xml:space="preserve">
<style type="text/css">
	.st0{fill:#FFFDF6;}
	.st1{fill:#FFFDF6;stroke:#FFFDF6;stroke-miterlimit:10;}
</style>
<g id="Layer_1-2">
	<path class="st0" d="M5.1,68.6c-0.2-0.2-0.2-0.4-0.2-0.6V19.3c0-0.2,0.1-0.4,0.2-0.6s0.4-0.2,0.6-0.2h6.6c0.2,0,0.4,0.1,0.6,0.2
		c0.2,0.1,0.2,0.4,0.2,0.6V68c0,0.2-0.1,0.4-0.2,0.6c-0.2,0.2-0.4,0.2-0.6,0.2H5.7C5.5,68.8,5.3,68.7,5.1,68.6L5.1,68.6z"/>
	<path class="st0" d="M58.7,18.4h6.6c0.2,0,0.4,0.1,0.6,0.2c0.2,0.1,0.2,0.4,0.2,0.6v48.7c0,0.2-0.1,0.4-0.2,0.6
		c-0.2,0.2-0.4,0.2-0.6,0.2h-6.6c-0.2,0-0.4-0.1-0.6-0.2c-0.2-0.2-0.2-0.4-0.2-0.6V33.6c0-0.1-0.1-0.2-0.2-0.3c-0.1,0-0.2,0-0.2,0.1
		l-9,13.8c-0.2,0.4-0.6,0.6-1,0.6h-3.3c-0.4,0-0.8-0.2-1-0.6L34,33.5c0-0.1-0.1-0.2-0.2-0.1c-0.1,0-0.2,0.1-0.2,0.3V68
		c0,0.2-0.1,0.4-0.2,0.6c-0.2,0.2-0.4,0.2-0.6,0.2h-6.6c-0.2,0-0.4-0.1-0.6-0.2c-0.2-0.2-0.2-0.4-0.2-0.6V19.3
		c0-0.2,0.1-0.4,0.2-0.6c0.2-0.2,0.4-0.2,0.6-0.2h6.6c0.4,0,0.8,0.2,1,0.6l11.7,17.8c0.1,0.1,0.2,0.1,0.3,0.1s0.2,0,0.2-0.1
		l11.7-17.8C57.9,18.6,58.3,18.4,58.7,18.4L58.7,18.4z"/>
	<path class="st0" d="M111.6,18.4h6.6c0.2,0,0.4,0.1,0.6,0.2c0.2,0.1,0.2,0.4,0.2,0.6v48.7c0,0.2-0.1,0.4-0.2,0.6
		c-0.2,0.2-0.4,0.2-0.6,0.2h-6.6c-0.2,0-0.4-0.1-0.6-0.2c-0.2-0.1-0.2-0.4-0.2-0.6V33.6c0-0.1-0.1-0.2-0.2-0.3c-0.1,0-0.2,0-0.2,0.1
		l-9,13.8c-0.2,0.4-0.6,0.6-1,0.6H97c-0.4,0-0.8-0.2-1-0.6l-9.1-13.8c-0.1-0.1-0.1-0.2-0.2-0.1c-0.1,0-0.2,0.1-0.2,0.3v34.3
		c0,0.2-0.1,0.4-0.2,0.6c-0.2,0.2-0.4,0.2-0.6,0.2H79c-0.2,0-0.4-0.1-0.6-0.2c-0.2-0.1-0.2-0.4-0.2-0.6V19.3c0-0.2,0.1-0.4,0.2-0.6
		s0.4-0.2,0.6-0.2h6.6c0.4,0,0.8,0.2,1,0.6l11.7,17.8c0.1,0.1,0.2,0.1,0.3,0.1s0.2,0,0.2-0.1l11.7-17.8
		C110.8,18.6,111.2,18.4,111.6,18.4L111.6,18.4z"/>
	<path class="st0" d="M201.7,67.3c-2.7-1.4-4.9-3.4-6.3-6c-1.5-2.6-2.2-5.6-2.2-8.9V34.9c0-3.4,0.7-6.4,2.2-9s3.6-4.6,6.3-6
		s5.9-2.1,9.5-2.1s6.7,0.7,9.4,2.1s4.8,3.3,6.3,5.7s2.2,5.1,2.2,8.1v0.6c0,0.2-0.1,0.4-0.2,0.6s-0.4,0.2-0.6,0.2h-6.6
		c-0.2,0-0.4-0.1-0.6-0.2c-0.2-0.1-0.2-0.4-0.2-0.6v-0.4c0-2.6-0.9-4.7-2.6-6.4s-4.1-2.5-7-2.5s-5.3,0.9-7.1,2.6s-2.7,4.1-2.7,7v18
		c0,2.9,0.9,5.2,2.8,7s4.3,2.6,7.3,2.6s5.1-0.8,6.8-2.3s2.5-3.6,2.5-6.2v-4.5c0-0.2-0.1-0.4-0.4-0.4h-8.9c-0.2,0-0.4-0.1-0.6-0.2
		s-0.2-0.4-0.2-0.6v-5.3c0-0.2,0.1-0.4,0.2-0.6s0.4-0.2,0.6-0.2h16.6c0.2,0,0.4,0.1,0.6,0.2s0.2,0.4,0.2,0.6v9.2
		c0,5.5-1.6,9.8-4.9,12.9c-3.3,3.1-7.6,4.6-13.1,4.6C207.6,69.4,204.4,68.7,201.7,67.3L201.7,67.3z"/>
	<path class="st0" d="M247.4,67.3c-2.8-1.5-4.9-3.5-6.4-6.2s-2.3-5.8-2.3-9.3V35.4c0-3.5,0.8-6.5,2.3-9.2s3.7-4.7,6.4-6.2
		c2.8-1.5,5.9-2.2,9.5-2.2c3.6,0,6.9,0.7,9.6,2.2c2.8,1.5,4.9,3.5,6.4,6.2s2.3,5.7,2.3,9.2v16.4c0,3.5-0.8,6.6-2.3,9.3
		s-3.7,4.8-6.4,6.2c-2.8,1.5-6,2.2-9.6,2.2C253.3,69.5,250.2,68.8,247.4,67.3L247.4,67.3z M264.3,59.5c1.8-1.9,2.7-4.3,2.7-7.4V35.3
		c0-3.1-0.9-5.6-2.7-7.5c-1.8-1.9-4.2-2.8-7.3-2.8c-3.1,0-5.4,0.9-7.2,2.8s-2.7,4.4-2.7,7.5v16.8c0,3.1,0.9,5.5,2.7,7.4
		s4.2,2.8,7.2,2.8C260,62.3,262.5,61.4,264.3,59.5z"/>
	<path class="st0" d="M315.7,68.1l-2.4-7.7c-0.1-0.2-0.2-0.3-0.4-0.3h-19c-0.1,0-0.3,0.1-0.4,0.3l-2.4,7.7c-0.1,0.5-0.5,0.7-0.9,0.7
		H283c-0.3,0-0.5-0.1-0.6-0.2c-0.1-0.2-0.2-0.4-0.1-0.8L298,19.1c0.1-0.5,0.5-0.7,0.9-0.7h9c0.5,0,0.8,0.2,0.9,0.7l15.7,48.7
		c0,0.1,0.1,0.2,0.1,0.4c0,0.4-0.3,0.7-0.8,0.7h-7.2C316.2,68.8,315.8,68.6,315.7,68.1L315.7,68.1z M296.1,53.6h14.6
		c0.3,0,0.4-0.1,0.3-0.4l-7.4-24.1c0-0.2-0.1-0.3-0.2-0.3s-0.2,0.1-0.2,0.3l-7.4,24C295.8,53.4,295.9,53.6,296.1,53.6z"/>
	<path class="st0" d="M333.7,68.6c-0.2-0.2-0.2-0.4-0.2-0.6V19.3c0-0.2,0.1-0.4,0.2-0.6s0.4-0.2,0.6-0.2h6.6c0.2,0,0.4,0.1,0.6,0.2
		c0.2,0.2,0.2,0.4,0.2,0.6v42c0,0.2,0.1,0.4,0.4,0.4h24.1c0.2,0,0.4,0.1,0.6,0.2c0.2,0.2,0.2,0.4,0.2,0.6V68c0,0.2-0.1,0.4-0.2,0.6
		c-0.2,0.2-0.4,0.2-0.6,0.2h-32C334.1,68.8,333.9,68.7,333.7,68.6L333.7,68.6z"/>
	<path class="st1" d="M160.3,34.9l4.2,7.4c0.3,0.6,0.3,1.3,0,1.9l-4.2,7.4c-0.3,0.6-1,0.9-1.6,0.9h-8.5c-0.7,0-1.3-0.4-1.6-0.9
		l-4.2-7.4c-0.3-0.6-0.3-1.3,0-1.9l4.2-7.4c0.3-0.6,1-0.9,1.6-0.9h8.5C159.4,34,160,34.3,160.3,34.9z"/>
	<path class="st1" d="M164.6,20.7l-4.2,7.4c-0.3,0.6-1,0.9-1.6,0.9h-8.5c-0.7,0-1.3-0.4-1.6-0.9l-4.2-7.4c-0.2-0.4-0.3-0.9-0.2-1.3
		c3.3-1.4,7-2.2,10.8-2.1c3.5,0.1,6.8,0.8,9.9,2.2l0,0C164.9,19.9,164.8,20.3,164.6,20.7L164.6,20.7z"/>
	<path class="st1" d="M164.8,67c-3.3,1.5-7,2.2-10.8,2.2c-3.5-0.1-6.8-0.8-9.9-2.2c-0.1-0.4,0-0.9,0.2-1.3l4.2-7.4
		c0.3-0.6,1-0.9,1.6-0.9h8.5c0.7,0,1.3,0.4,1.6,0.9l4.2,7.4C164.8,66.1,164.9,66.5,164.8,67L164.8,67z"/>
	<path class="st1" d="M144.3,32.4l-4.2,7.4c-0.3,0.6-1,0.9-1.6,0.9H130c-0.5,0-0.9-0.2-1.2-0.5c0.8-7.3,4.7-13.8,10.4-17.9
		c0.4,0.1,0.8,0.4,1,0.8l4.2,7.4C144.6,31.1,144.6,31.8,144.3,32.4L144.3,32.4z"/>
	<path class="st1" d="M180.2,46.1c-0.8,7.3-4.7,13.8-10.4,17.9c-0.4-0.2-0.8-0.4-1-0.8l-4.2-7.4c-0.3-0.6-0.3-1.3,0-1.9l4.2-7.4
		c0.3-0.6,1-0.9,1.6-0.9h8.5C179.4,45.7,179.8,45.8,180.2,46.1L180.2,46.1z"/>
	<path class="st1" d="M144.3,55.8l-4.2,7.4c-0.2,0.4-0.6,0.7-1,0.8c-5.6-4.2-9.6-10.6-10.4-17.9c0.3-0.3,0.8-0.5,1.2-0.5h8.5
		c0.7,0,1.3,0.4,1.6,0.9l4.2,7.4C144.6,54.5,144.6,55.3,144.3,55.8z"/>
	<path class="st1" d="M180.2,40.3L180.2,40.3c-0.3,0.3-0.8,0.5-1.2,0.5h-8.5c-0.7,0-1.3-0.4-1.6-0.9l-4.2-7.4
		c-0.3-0.6-0.3-1.3,0-1.9l4.2-7.4c0.2-0.4,0.6-0.7,1-0.8C175.4,26.6,179.4,33,180.2,40.3z"/>
</g>
</svg>
