<?xml version="1.0" encoding="utf-8"?>
<!-- Generator: Adobe Illustrator 28.3.0, SVG Export Plug-In . SVG Version: 6.00 Build 0)  -->
<svg version="1.1" id="Layer_2_00000101105356930714357780000002082900902886630784_"
	 xmlns="http://www.w3.org/2000/svg" xmlns:xlink="http://www.w3.org/1999/xlink" x="0px" y="0px" viewBox="0 0 372 76.6"
	 style="enable-background:new 0 0 372 76.6;" xml:space="preserve">
<style type="text/css">
	.st0{fill:#354255;}
	.st1{fill:#354255;stroke:#354255;stroke-miterlimit:10;}
</style>
<g id="Layer_1-2">
	<path class="st0" d="M5.1,65.7c-0.2-0.2-0.2-0.4-0.2-0.6V16.4c0-0.2,0.1-0.4,0.2-0.6s0.4-0.2,0.6-0.2h6.6c0.2,0,0.4,0.1,0.6,0.2
		s0.2,0.4,0.2,0.6v48.7c0,0.2-0.1,0.4-0.2,0.6c-0.2,0.2-0.4,0.2-0.6,0.2H5.7C5.5,66,5.3,65.9,5.1,65.7L5.1,65.7z"/>
	<path class="st0" d="M58.7,15.6h6.6c0.2,0,0.4,0.1,0.6,0.2s0.2,0.4,0.2,0.6v48.7c0,0.2-0.1,0.4-0.2,0.6c-0.2,0.2-0.4,0.2-0.6,0.2
		h-6.6c-0.2,0-0.4-0.1-0.6-0.2c-0.2-0.2-0.2-0.4-0.2-0.6V30.8c0-0.1-0.1-0.2-0.2-0.3c-0.1,0-0.2,0-0.2,0.1l-9,13.8
		c-0.2,0.4-0.6,0.6-1,0.6h-3.3c-0.4,0-0.8-0.2-1-0.6L34,30.7c0-0.1-0.1-0.2-0.2-0.1c-0.1,0-0.2,0.1-0.2,0.3v34.3
		c0,0.2-0.1,0.4-0.2,0.6c-0.2,0.2-0.4,0.2-0.6,0.2h-6.6c-0.2,0-0.4-0.1-0.6-0.2c-0.2-0.2-0.2-0.4-0.2-0.6V16.4
		c0-0.2,0.1-0.4,0.2-0.6c0.2-0.2,0.4-0.2,0.6-0.2h6.6c0.4,0,0.8,0.2,1,0.6l11.7,17.8c0.1,0.1,0.2,0.1,0.3,0.1s0.2,0,0.2-0.1
		l11.7-17.8C57.9,15.8,58.3,15.6,58.7,15.6L58.7,15.6z"/>
	<path class="st0" d="M111.6,15.6h6.6c0.2,0,0.4,0.1,0.6,0.2s0.2,0.4,0.2,0.6v48.7c0,0.2-0.1,0.4-0.2,0.6c-0.2,0.2-0.4,0.2-0.6,0.2
		h-6.6c-0.2,0-0.4-0.1-0.6-0.2s-0.2-0.4-0.2-0.6V30.8c0-0.1-0.1-0.2-0.2-0.3c-0.1,0-0.2,0-0.2,0.1l-9,13.8c-0.2,0.4-0.6,0.6-1,0.6
		H97c-0.4,0-0.8-0.2-1-0.6l-9.1-13.7c-0.1-0.1-0.1-0.2-0.2-0.1c-0.1,0-0.2,0.1-0.2,0.3v34.3c0,0.2-0.1,0.4-0.2,0.6
		C86,65.9,85.8,66,85.6,66H79c-0.2,0-0.4-0.1-0.6-0.2s-0.2-0.4-0.2-0.6V16.4c0-0.2,0.1-0.4,0.2-0.6s0.4-0.2,0.6-0.2h6.6
		c0.4,0,0.8,0.2,1,0.6l11.7,17.8c0.1,0.1,0.2,0.1,0.3,0.1s0.2,0,0.2-0.1l11.7-17.8C110.8,15.8,111.2,15.6,111.6,15.6L111.6,15.6z"/>
	<path class="st0" d="M201.7,64.4c-2.7-1.4-4.9-3.4-6.3-6c-1.5-2.6-2.2-5.6-2.2-8.9V32.1c0-3.4,0.7-6.4,2.2-9c1.5-2.6,3.6-4.6,6.3-6
		c2.7-1.4,5.9-2.1,9.5-2.1s6.7,0.7,9.4,2.1c2.7,1.4,4.8,3.3,6.3,5.7s2.2,5.1,2.2,8.1v0.6c0,0.2-0.1,0.4-0.2,0.6
		c-0.2,0.2-0.4,0.2-0.6,0.2h-6.6c-0.2,0-0.4-0.1-0.6-0.2c-0.2-0.2-0.2-0.4-0.2-0.6v-0.4c0-2.6-0.9-4.7-2.6-6.4s-4.1-2.5-7-2.5
		s-5.3,0.9-7.1,2.6s-2.7,4.1-2.7,7v18c0,2.9,0.9,5.2,2.8,7s4.3,2.6,7.3,2.6s5.1-0.8,6.8-2.3c1.7-1.5,2.5-3.6,2.5-6.2v-4.5
		c0-0.2-0.1-0.4-0.4-0.4h-8.9c-0.2,0-0.4-0.1-0.6-0.2s-0.2-0.4-0.2-0.6v-5.3c0-0.2,0.1-0.4,0.2-0.6c0.2-0.2,0.4-0.2,0.6-0.2h16.6
		c0.2,0,0.4,0.1,0.6,0.2s0.2,0.4,0.2,0.6v9.2c0,5.5-1.6,9.8-4.9,12.9s-7.6,4.6-13.1,4.6C207.6,66.6,204.4,65.9,201.7,64.4
		L201.7,64.4z"/>
	<path class="st0" d="M247.4,64.5c-2.8-1.5-4.9-3.5-6.4-6.2c-1.5-2.7-2.3-5.8-2.3-9.3V32.6c0-3.5,0.8-6.5,2.3-9.2
		c1.5-2.7,3.7-4.7,6.4-6.2c2.8-1.5,5.9-2.2,9.5-2.2s6.9,0.7,9.6,2.2c2.8,1.5,4.9,3.5,6.4,6.2c1.5,2.7,2.3,5.7,2.3,9.2V49
		c0,3.5-0.8,6.6-2.3,9.3c-1.5,2.7-3.7,4.8-6.4,6.2c-2.8,1.5-6,2.2-9.6,2.2S250.2,66,247.4,64.5L247.4,64.5z M264.3,56.7
		c1.8-1.9,2.7-4.3,2.7-7.4V32.5c0-3.1-0.9-5.6-2.7-7.5c-1.8-1.9-4.2-2.8-7.3-2.8s-5.4,0.9-7.2,2.8c-1.8,1.9-2.7,4.4-2.7,7.5v16.8
		c0,3.1,0.9,5.5,2.7,7.4c1.8,1.9,4.2,2.8,7.2,2.8C260,59.5,262.5,58.6,264.3,56.7z"/>
	<path class="st0" d="M315.7,65.3l-2.4-7.7c-0.1-0.2-0.2-0.3-0.4-0.3h-19c-0.1,0-0.3,0.1-0.4,0.3l-2.4,7.7c-0.1,0.5-0.5,0.7-0.9,0.7
		h-7.2c-0.3,0-0.5-0.1-0.6-0.2c-0.1-0.2-0.2-0.4-0.1-0.8L298,16.3c0.1-0.5,0.5-0.7,0.9-0.7h9c0.5,0,0.8,0.2,0.9,0.7L324.6,65
		c0,0.1,0.1,0.2,0.1,0.4c0,0.4-0.3,0.7-0.8,0.7h-7.2C316.2,66,315.8,65.7,315.7,65.3L315.7,65.3z M296.1,50.7h14.6
		c0.3,0,0.4-0.1,0.3-0.4l-7.4-24.1c0-0.2-0.1-0.3-0.2-0.3s-0.2,0.1-0.2,0.3l-7.3,24.1C295.8,50.6,295.9,50.7,296.1,50.7z"/>
	<path class="st0" d="M333.7,65.7c-0.2-0.2-0.2-0.4-0.2-0.6V16.4c0-0.2,0.1-0.4,0.2-0.6s0.4-0.2,0.6-0.2h6.6c0.2,0,0.4,0.1,0.6,0.2
		c0.2,0.2,0.2,0.4,0.2,0.6v42c0,0.2,0.1,0.4,0.4,0.4h24.1c0.2,0,0.4,0.1,0.6,0.2c0.2,0.2,0.2,0.4,0.2,0.6v5.5c0,0.2-0.1,0.4-0.2,0.6
		s-0.4,0.2-0.6,0.2h-32C334.1,66,333.9,65.9,333.7,65.7L333.7,65.7z"/>
	<path class="st1" d="M160.3,32l4.2,7.4c0.3,0.6,0.3,1.3,0,1.9l-4.2,7.4c-0.3,0.6-1,0.9-1.6,0.9h-8.5c-0.7,0-1.3-0.4-1.6-0.9
		l-4.2-7.4c-0.3-0.6-0.3-1.3,0-1.9l4.2-7.4c0.3-0.6,1-0.9,1.6-0.9h8.5C159.4,31.1,160,31.5,160.3,32z"/>
	<path class="st1" d="M164.6,17.9l-4.2,7.4c-0.3,0.6-1,0.9-1.6,0.9h-8.5c-0.7,0-1.3-0.4-1.6-0.9l-4.2-7.4c-0.2-0.4-0.3-0.9-0.2-1.3
		c3.3-1.4,7-2.2,10.8-2.1c3.5,0.1,6.8,0.8,9.9,2.2l0,0C164.9,17,164.8,17.5,164.6,17.9L164.6,17.9z"/>
	<path class="st1" d="M164.8,64.1c-3.3,1.4-7,2.2-10.8,2.2c-3.5-0.1-6.8-0.8-9.9-2.2c-0.1-0.4,0-0.9,0.2-1.3l4.2-7.4
		c0.3-0.6,1-0.9,1.6-0.9h8.5c0.7,0,1.3,0.4,1.6,0.9l4.2,7.4C164.8,63.2,164.9,63.7,164.8,64.1L164.8,64.1z"/>
	<path class="st1" d="M144.3,29.6l-4.2,7.4c-0.3,0.6-1,0.9-1.6,0.9h-8.5c-0.5,0-0.9-0.2-1.2-0.5c0.8-7.3,4.7-13.8,10.4-17.9
		c0.4,0.1,0.8,0.4,1,0.8l4.2,7.4C144.6,28.3,144.6,29,144.3,29.6L144.3,29.6z"/>
	<path class="st1" d="M180.2,43.3c-0.8,7.3-4.7,13.8-10.4,17.9c-0.4-0.2-0.8-0.4-1-0.8l-4.2-7.4c-0.3-0.6-0.3-1.3,0-1.9l4.2-7.4
		c0.3-0.6,1-0.9,1.6-0.9h8.5C179.4,42.8,179.8,43,180.2,43.3L180.2,43.3z"/>
	<path class="st1" d="M144.3,53l-4.2,7.4c-0.2,0.4-0.6,0.7-1,0.8c-5.6-4.2-9.6-10.6-10.4-17.9c0.3-0.3,0.8-0.5,1.2-0.5h8.5
		c0.7,0,1.3,0.4,1.6,0.9l4.2,7.4C144.6,51.7,144.6,52.4,144.3,53z"/>
	<path class="st1" d="M180.2,37.4L180.2,37.4c-0.3,0.3-0.8,0.5-1.2,0.5h-8.5c-0.7,0-1.3-0.4-1.6-0.9l-4.2-7.4
		c-0.3-0.6-0.3-1.3,0-1.9l4.2-7.4c0.2-0.4,0.6-0.7,1-0.8C175.4,23.7,179.4,30.1,180.2,37.4z"/>
</g>
</svg>
